<?xml version="1.0" encoding="utf-8"?>
<!-- Generator: Adobe Illustrator 20.0.0, SVG Export Plug-In . SVG Version: 6.00 Build 0)  -->
<svg version="1.1" id="Layer_1" xmlns="http://www.w3.org/2000/svg" xmlns:xlink="http://www.w3.org/1999/xlink" x="0px" y="0px"
	 viewBox="0 0 450 450" style="enable-background:new 0 0 450 450;" xml:space="preserve">
<style type="text/css">
	.st0{fill:#FAAF1B;}
	.st1{fill:#5C355B;}
	.st2{fill:#196EB2;}
	.st3{fill:#9C1F26;}
	.st4{fill-rule:evenodd;clip-rule:evenodd;fill:#949698;}
	.st5{fill:#EC2027;}
	.st6{fill:#FFFFFF;}
	.st7{fill:none;stroke:#FFFFFF;stroke-width:1.6667;}
	.st8{fill:#CC2C31;}
	.st9{fill-rule:evenodd;clip-rule:evenodd;fill:#EC2028;}
	.st10{fill-rule:evenodd;clip-rule:evenodd;}
	.st11{fill:#18A14A;}
	.st12{fill:#F0E92A;}
	.st13{fill:#EB2329;}
	.st14{fill:#C5232B;}
	.st15{fill:#E72B2F;}
	.st16{fill:#FCB415;}
	.st17{fill:#E6BC5D;}
</style>
<g>
	<path d="M286.9,62.2v56.5c42.3,23.2,71,68.6,71,120.7c0,75.8-60.8,137.3-135.7,137.3c-22.9,0-44.4-5.7-63.4-15.8l9.6-19.7
		c16,8.7,34.3,13.6,53.8,13.6c63,0,114-51.6,114-115.3c0-39.8-19.9-74.9-50.3-95.6v109.1l-38.3-36.2V134l-47.3,112.3h47.3v-18
		l44.3,41.7l-45.8,35.2v-18.6h-62.3l-41.1,92.8l-50.8-1l124.4-254c-60.2,3.1-108.1,53.5-108.1,115.2c0,20.8,5.5,40.3,15,57.2
		L111.6,319c-15.8-22.5-25.2-49.9-25.2-79.6c0-75.8,60.8-137.3,135.7-137.3c1.1,0,2.1,0,3.2,0l19.6-40H286.9 M292.9,56.2h-6H245
		h-3.7l-1.6,3.4l-17.9,36.6c-77.9,0.3-141.2,64.5-141.2,143.3c0,30,9.1,58.7,26.3,83.1l3.5,4.9l-23.6,48.2l-4.1,8.5l9.4,0.2l50.8,1
		l4,0.1l1.6-3.6l7-15.9l0.7,0.4c20.2,10.8,43.1,16.6,66.2,16.6c78.2,0,141.7-64.3,141.7-143.3c0-51.4-27.1-98.6-71-124.2v-53V56.2
		L292.9,56.2z M127.5,292c-8.7-16-13.3-34.2-13.3-52.6c0-54.7,39.6-100.3,92-108.1L127.5,292L127.5,292z M291.9,261.6v-8.7v-97
		c24.2,20.7,38.3,51.1,38.3,83.5c0,60.3-48.5,109.3-108,109.3c-17.8,0-35.4-4.5-50.9-12.9l-2.2-1.2l18.7-42.2h52.4v12.6v18.8l9.7-14
		l45.8-35.2l5.6-4.3l-5.1-4.8L291.9,261.6L291.9,261.6z M209.4,240.3l32.2-76.6v50.7v13.9v12H209.4L209.4,240.3z"/>
	<path d="M285.9,283.8v34h-39.7L285.9,283.8 M291.9,270.8l-9.9,8.5l-39.7,34l-2.1,10.6h45.7h6v-6v-34V270.8L291.9,270.8z"/>
</g>
<g>
	<path class="st8" d="M286.9,118.7V62.2H245l-19.6,40c-1.1,0-2.1,0-3.2,0c-75,0-135.7,61.5-135.7,137.3c0,29.7,9.3,57.2,25.2,79.6
		l11.6-22.4c-9.5-16.9-15-36.4-15-57.2c0-61.7,47.9-112.1,108.1-115.2L92,378.2l50.8,1l41.1-92.8h62.3v18.6l45.8-35.2l-44.3-41.7v18
		h-47.3L247.7,134v82.7l38.3,36.2V143.8c30.3,20.7,50.3,55.8,50.3,95.6c0,63.7-51,115.3-114,115.3c-19.5,0-37.8-4.9-53.8-13.6
		l-9.6,19.7c18.9,10.1,40.5,15.8,63.4,15.8c75,0,135.7-61.5,135.7-137.3C357.9,187.3,329.2,141.9,286.9,118.7z"/>
	<polygon class="st8" points="246.1,317.8 285.9,317.8 285.9,283.8 	"/>
</g>
<g>
	<path class="st6" d="M283.9,65.2v53.5v1.8l1.6,0.9c42.9,23.5,69.5,68.8,69.5,118.1c0,74-59.5,134.3-132.7,134.3
		c-20.6,0-41.1-4.9-59.4-14.2l6.9-14.3c16.2,8.2,34.2,12.5,52.5,12.5c64.5,0,117-53.1,117-118.3c0-39.4-19.3-76-51.6-98.1l-4.7-3.2
		v5.7V246l-32.3-30.5V134v-14.9l-5.8,13.7l-47.3,112.3l-1.8,4.2h4.5h47.3h3v-3v-11.1l36.7,34.5L249.2,299v-12.5v-3h-3h-62.3h-2
		l-0.8,1.8l-40.3,90.9l-44.1-0.9L219,125.6l2.2-4.6l-5.1,0.3c-62.2,3.2-111,55.1-111,118.2c0,20.1,5,39.8,14.6,57.3l-8.5,16.5
		c-14.3-21.9-21.8-47.3-21.8-73.8c0-74,59.5-134.3,132.7-134.3c1,0,2.1,0,3.1,0l1.9,0l0.8-1.7l18.8-38.3H283.9 M286.9,62.2H245
		l-19.6,40c-1.1,0-2.1,0-3.2,0c-75,0-135.7,61.5-135.7,137.3c0,29.7,9.3,57.2,25.2,79.6l11.6-22.4c-9.5-16.9-15-36.4-15-57.2
		c0-61.7,47.9-112.1,108.1-115.2L92,378.2l50.8,1l41.1-92.8h62.3v18.6l45.8-35.2l-44.3-41.7v18h-47.3L247.7,134v82.7l38.3,36.2
		V143.8c30.3,20.7,50.3,55.8,50.3,95.6c0,63.7-51,115.3-114,115.3c-19.5,0-37.8-4.9-53.8-13.6l-9.6,19.7
		c18.9,10.1,40.5,15.8,63.4,15.8c75,0,135.7-61.5,135.7-137.3c0-52.1-28.7-97.5-71-120.7V62.2L286.9,62.2z"/>
	<path class="st6" d="M282.9,290.3v24.5h-28.6L282.9,290.3 M285.9,283.8l-39.7,34h39.7V283.8L285.9,283.8z"/>
</g>
</svg>
