<?xml version="1.0" encoding="utf-8"?>
<!-- Generator: Adobe Illustrator 20.0.0, SVG Export Plug-In . SVG Version: 6.00 Build 0)  -->
<svg version="1.1" id="Layer_1" xmlns="http://www.w3.org/2000/svg" xmlns:xlink="http://www.w3.org/1999/xlink" x="0px" y="0px"
	 viewBox="0 0 450 450" style="enable-background:new 0 0 450 450;" xml:space="preserve">
<style type="text/css">
	.st0{fill:#FAAF1B;}
	.st1{fill:#5C355B;}
	.st2{fill:#196EB2;}
	.st3{fill:#9C1F26;}
	.st4{fill-rule:evenodd;clip-rule:evenodd;fill:#949698;}
	.st5{fill:#EC2027;}
	.st6{fill:#FFFFFF;}
	.st7{fill:none;stroke:#FFFFFF;stroke-width:1.6667;}
	.st8{fill:#CC2C31;}
	.st9{fill-rule:evenodd;clip-rule:evenodd;fill:#EC2028;}
	.st10{fill-rule:evenodd;clip-rule:evenodd;}
	.st11{fill:#18A14A;}
	.st12{fill:#F0E92A;}
	.st13{fill:#EB2329;}
	.st14{fill:#C5232B;}
	.st15{fill:#E72B2F;}
	.st16{fill:#FCB415;}
	.st17{fill:#E6BC5D;}
</style>
<circle cx="220.8" cy="219.3" r="186.9"/>
<g>
	<path class="st17" d="M208.6,200.1l-5.2,35.5l-18.5,5.9l12.5-8.4l-55-21.2l-30.3,10.1l60.2,40l29.9,37.3h19.5h19.5l29.9-37.3
		l60.2-40L301.2,212l-55,21.2l12.5,8.4l-18.5-5.9l-5.2-35.5l62.7-49.5l5.2-48.4l-81.1-19.9l-81.1,19.9l5.2,48.4L208.6,200.1z
		 M167,249.4l-42.5-26.3l19.5-5.2l43.4,17.1L167,249.4z M256.2,235l43.4-17.1l19.5,5.2l-42.5,26.3L256.2,235z"/>
	<polygon class="st17" points="132.2,281.4 137.5,320.9 167,341.9 160.2,304.6 	"/>
	<polygon class="st17" points="355,238 336.5,175.3 343,159.6 343,94.6 308.6,103.6 302.6,153.1 241.3,201.9 244.1,221.4 
		310.3,168.4 332.6,201.5 310.6,181.3 244.8,224.5 245.2,230.1 302.6,206.7 341.6,220.3 277.6,264.9 244.8,305.6 221.8,305.6 
		198.9,305.6 166.1,264.9 102,220.3 141,206.7 198.5,230.1 198.9,224.5 133,181.3 111.1,201.5 133.4,168.4 199.6,221.4 202.3,201.9 
		141,153.1 135.1,103.6 100.7,94.6 100.6,159.6 107.1,175.3 88.7,238 165.5,301.2 174.2,346.8 183.1,356 186.1,347.1 221.8,338.4 
		257.6,347.1 260.6,356 269.5,346.8 278.2,301.2 	"/>
	<polygon class="st17" points="276.7,341.9 306.1,320.9 311.4,281.4 283.5,304.6 	"/>
</g>
<g>
	<path class="st17" d="M221.8,26.9c-106.5,0-192.9,86.4-192.9,192.9c0,106.5,86.4,192.9,192.9,192.9s192.9-86.4,192.9-192.9
		C414.8,113.3,328.4,26.9,221.8,26.9z M221.8,383.5c-90.4,0-163.7-73.3-163.7-163.7c0-40,14.3-76.6,38.1-105l0-20.3l0-5.6l5.4,1.4
		l15,4c28.4-23.8,65.1-38.2,105-38.2s76.6,14.4,105,38.2l15-4l5.4-1.4l0,5.6l0,20.3c23.8,28.4,38.1,65,38.1,105
		C385.5,310.2,312.2,383.5,221.8,383.5z"/>
</g>
</svg>
