<?xml version="1.0" encoding="utf-8"?>
<!-- Generator: Adobe Illustrator 20.0.0, SVG Export Plug-In . SVG Version: 6.00 Build 0)  -->
<svg version="1.1" id="Layer_1" xmlns="http://www.w3.org/2000/svg" xmlns:xlink="http://www.w3.org/1999/xlink" x="0px" y="0px"
	 viewBox="0 0 450 450" style="enable-background:new 0 0 450 450;" xml:space="preserve">
<style type="text/css">
	.st0{fill:#FAAF1B;}
	.st1{fill:#5C355B;}
	.st2{fill:#196EB2;}
	.st3{fill:#9C1F26;}
	.st4{fill-rule:evenodd;clip-rule:evenodd;fill:#949698;}
	.st5{fill:#EC2027;}
	.st6{fill:#FFFFFF;}
	.st7{fill:none;stroke:#FFFFFF;stroke-width:1.6667;}
	.st8{fill:#CC2C31;}
	.st9{fill-rule:evenodd;clip-rule:evenodd;fill:#EC2028;}
	.st10{fill-rule:evenodd;clip-rule:evenodd;}
	.st11{fill:#18A14A;}
	.st12{fill:#F0E92A;}
	.st13{fill:#EB2329;}
	.st14{fill:#C5232B;}
	.st15{fill:#E72B2F;}
	.st16{fill:#FCB415;}
	.st17{fill:#E6BC5D;}
</style>
<circle class="st2" cx="221.8" cy="220.5" r="105.4"/>
<g>
	<path class="st14" d="M221.8,101.9c-65.5,0-118.6,53.1-118.6,118.6c0,65.5,53.1,118.6,118.6,118.6S340.4,286,340.4,220.5
		C340.4,155,287.3,101.9,221.8,101.9z M283.1,281.8c-16.4,16.4-38.1,25.4-61.3,25.4s-44.9-9-61.3-25.4
		c-16.4-16.4-25.4-38.1-25.4-61.3s9-44.9,25.4-61.3c16.4-16.4,38.1-25.4,61.3-25.4s44.9,9,61.3,25.4c16.4,16.4,25.4,38.1,25.4,61.3
		S299.4,265.4,283.1,281.8z"/>
	<path class="st14" d="M221.8,34.2c-102.9,0-186.3,83.4-186.3,186.3s83.4,186.3,186.3,186.3s186.3-83.4,186.3-186.3
		S324.7,34.2,221.8,34.2z M330.9,329.6c-29.2,29.2-67.9,45.2-109.1,45.2s-80-16.1-109.1-45.2c-29.2-29.2-45.2-67.9-45.2-109.1
		s16.1-80,45.2-109.1c29.2-29.2,67.9-45.2,109.1-45.2s80,16.1,109.1,45.2c29.2,29.2,45.2,67.9,45.2,109.1S360.1,300.5,330.9,329.6z"
		/>
	<polygon class="st6" points="239.5,196.3 221.8,141.8 204.1,196.3 146.8,196.3 193.2,229.9 175.5,284.4 221.8,250.7 268.1,284.4 
		250.4,229.9 296.7,196.3 	"/>
</g>
</svg>
