<?xml version="1.0" encoding="utf-8"?>
<!-- Generator: Adobe Illustrator 20.0.0, SVG Export Plug-In . SVG Version: 6.00 Build 0)  -->
<svg version="1.1" id="Layer_1" xmlns="http://www.w3.org/2000/svg" xmlns:xlink="http://www.w3.org/1999/xlink" x="0px" y="0px"
	 viewBox="0 0 450 450" style="enable-background:new 0 0 450 450;" xml:space="preserve">
<style type="text/css">
	.st0{fill:#FAAF1B;}
	.st1{fill:#5C355B;}
	.st2{fill:#196EB2;}
	.st3{fill:#9C1F26;}
	.st4{fill-rule:evenodd;clip-rule:evenodd;fill:#949698;}
	.st5{fill:#EC2027;}
	.st6{fill:#FFFFFF;}
	.st7{fill:none;stroke:#FFFFFF;stroke-width:1.6667;}
	.st8{fill:#CC2C31;}
	.st9{fill-rule:evenodd;clip-rule:evenodd;fill:#EC2028;}
	.st10{fill-rule:evenodd;clip-rule:evenodd;}
	.st11{fill:#18A14A;}
	.st12{fill:#F0E92A;}
	.st13{fill:#EB2329;}
	.st14{fill:#C5232B;}
	.st15{fill:#E72B2F;}
	.st16{fill:#FCB415;}
	.st17{fill:#E6BC5D;}
</style>
<path class="st1" d="M400.6,216.6h-31.2C367,138.8,304,76.1,226,74.4V42h-7.7v32.4C140.7,76.6,78.1,139,75.7,216.6h-32v7.7h32
	c1.6,78.3,64.5,141.6,142.6,143.8V399h7.7v-30.8c78.6-1.8,141.9-65.2,143.5-143.9h31.1V216.6z M310.8,133
	c22.5,22.5,35.3,52,36.4,83.6h-26.6c-2.4-51-43.6-91.7-94.7-93.5V96.6C258,97.4,288,110.3,310.8,133z M218.3,224.3V246
	c-10.8-1.9-19.3-10.7-20.6-21.6H218.3z M197.9,216.6c1.9-10.2,10.1-18.3,20.4-20.1v20.1H197.9z M226,224.3h21.5
	c-1.4,11.3-10.2,20.2-21.5,21.8V224.3z M226,216.6v-20.2c10.7,1.5,19.2,9.7,21.2,20.2H226z M218.3,174.2
	c-22.6,2-40.6,19.9-42.8,42.4h-28.8c2.3-38.4,33.2-69.1,71.6-71.3V174.2z M175.4,224.3c1.5,23.3,19.8,42,42.9,44v28.8
	c-38.9-2.2-70.1-33.8-71.7-72.8H175.4z M226,268.4c23.5-1.7,42.2-20.5,43.7-44.1h28.8c-1.6,39.4-33.2,71.1-72.5,72.9V268.4z
	 M269.6,216.6c-2.2-22.8-20.7-40.9-43.6-42.5v-28.8c38.8,1.7,70.1,32.7,72.4,71.3H269.6z M134.4,133c22.6-22.6,52.2-35.4,84-36.4
	v26.6c-50.7,2.2-91.5,42.8-93.8,93.5H97.9C99.1,185,111.9,155.5,134.4,133z M134.4,309.5c-22.8-22.8-35.7-53-36.5-85.2h26.6
	c1.6,51.4,42.6,92.9,93.9,95.1v26.6C186.6,344.9,156.9,332.1,134.4,309.5z M310.8,309.5C288,332.3,258,345.1,226,346v-26.6
	c51.6-1.8,93.1-43.4,94.7-95.1h26.6C346.5,256.5,333.6,286.7,310.8,309.5z"/>
</svg>
