<?xml version="1.0" encoding="utf-8"?>
<!-- Generator: Adobe Illustrator 20.0.0, SVG Export Plug-In . SVG Version: 6.00 Build 0)  -->
<svg version="1.1" id="Layer_1" xmlns="http://www.w3.org/2000/svg" xmlns:xlink="http://www.w3.org/1999/xlink" x="0px" y="0px"
	 viewBox="0 0 450 450" style="enable-background:new 0 0 450 450;" xml:space="preserve">
<style type="text/css">
	.st0{fill:#FAAF1B;}
	.st1{fill:#5C355B;}
	.st2{fill:#196EB2;}
	.st3{fill:#9C1F26;}
	.st4{fill-rule:evenodd;clip-rule:evenodd;fill:#949698;}
	.st5{fill:#EC2027;}
	.st6{fill:#FFFFFF;}
	.st7{fill:none;stroke:#FFFFFF;stroke-width:1.6667;}
	.st8{fill:#CC2C31;}
	.st9{fill-rule:evenodd;clip-rule:evenodd;fill:#EC2028;}
	.st10{fill-rule:evenodd;clip-rule:evenodd;}
	.st11{fill:#18A14A;}
	.st12{fill:#F0E92A;}
	.st13{fill:#EB2329;}
	.st14{fill:#C5232B;}
	.st15{fill:#E72B2F;}
	.st16{fill:#FCB415;}
	.st17{fill:#E6BC5D;}
</style>
<g>
	<g>
		<path d="M223.3,87.9c10.2,0,17.8,6,24.8,13.1c8.1,8.2,9.1,18.8,8.2,29.6c-0.3,4.5-4.1,7.2-6.6,10.5c-2.1,2.7-3,4.5-0.3,7.4
			c2.5,2.7,1.7,6.6,2,9.9c1,10.9,1.5,21.9,1.2,32.8c-0.1,3.7-0.4,7.4-1.3,11c-0.7,2.7-0.6,5,2.2,6.6c1.5,0.8,1.5,2.3,1,3.7
			c-1.2,3.2-3.3,5.3-6.6,6.3c-3.2,1-6.5,1.4-9.9,1.4c-19.6,0-39.4-15.8-41.5-35.6c-1.6-14.6,4.1-26.6,13.6-37.1
			c1.3-1.4,2.8-2.7,3.8-4.3c0.9-1.5,0.5-2.8-0.8-2.8c-0.3,0-0.6,0.1-1,0.2c-7.6,2.5-15.3,4.9-18.6,13.6c-0.9,2.5-1.9,3.7-3.2,3.7
			c-1,0-2.2-0.8-3.7-2.3c-7.2-7.6-11.3-17.1-15.7-26.4c-0.5-1.1-0.4-3.2-1.8-3.2c-0.2,0-0.3,0-0.5,0.1c-1.5,0.4-1,2.8-0.7,4.2
			c1.4,5.2,2.9,10.3,4.5,15.4c0.3,0.9,0.7,1.6,0.9,2.5c0.4,1.3,1,2.9-0.4,3.8c-0.4,0.3-0.8,0.4-1.1,0.4c-1,0-1.8-0.8-2.5-1.6
			c-1.9-2.2-3.8-4.4-5.7-6.6c-0.4,0.3-0.8,0.6-1.1,0.9c0.2,1.8,1.3,3.2,2.3,4.6c6.4,9.2,12.9,18.4,23.1,24c2.4,1.3,2.9,3.5,1.8,5.9
			c-1.2,2.4-1,4.8-0.8,7.4c0.6,5.9-2.3,11.1-4.1,16.5c-1.1,3.2-2.8,6.2-4.3,9.3c-0.5,1.1-2,2.5-0.7,3.3c0.3,0.2,0.5,0.3,0.8,0.3
			c1,0,1.7-1.5,2.3-2.3c2.4-2.9,4.6-6.1,7.1-9c0.9-1.1,1.7-1.6,2.4-1.6c0.9,0,1.5,0.9,2,2.6c1.5,6.1-0.1,11.8-1.9,17.6
			c-0.3,1-0.8,1.9-1.1,2.8c-0.3,0.7-0.5,1.6,0.3,2c0.2,0.1,0.4,0.1,0.6,0.1c0.5,0,1-0.3,1.4-0.8c1.4-1.6,2.2-3.8,4.2-4.8
			c0.6-0.3,1.4-0.9,2.1-0.9c0.3,0,0.7,0.1,1,0.5c0.9,1-0.4,1.8-0.9,2.6c-1,1.6-2,3.2-3,4.9c-3.5,5.7-7.8,10.3-14.5,12.1
			c-2.3,0.6-6.1,1.5-5.4,4.3c0.3,1.1,0.9,1.4,1.8,1.4c1.4,0,3.2-1,4.6-1c4.5-0.3,8.4-2.7,12.5-4.4c0.9-0.4,1.9-1.1,2.8-1.1
			c0.4,0,0.8,0.1,1.1,0.4c1.3,1,0.5,2.6,0.3,3.9c-1.4,8.8-3.7,17.4-2.8,26.5c0.5,5.4,3.3,10.1,4.3,15.4c0.8,3.9,0.4,6.9-2.8,9.5
			c-3.4,2.8-5.1,6.6-5.1,11.1c0,3.4-1.3,6.5-2.5,9.5c-2.7,6.5-1.2,11.8,3.9,16.5c3.7,3.4,7.8,6.2,11.8,9.1c1,0.7,2.4,1,2.8,2.9
			c-0.2,0-0.4,0-0.7,0c-5.7,0-10.9,2.2-16.3,3.2c-0.5,0.1-1.1,0.1-1.6,0.1c-2.9,0-5.5-1.4-7.3-4.1c-0.4-0.5-0.6-1.1-1-1.6
			c-1.1-1.5-2.1-3.2-4.1-3.2c-0.1,0-0.2,0-0.3,0c-2.2,0.2-2,2.5-2.6,4.3c-2.8-2-3.5-4.9-4.2-7.6c-0.6-2.4-1.7-4.5-2.5-6.8
			c-0.2-0.7-0.6-1.6-1.3-1.6c-0.1,0-0.3,0-0.5,0.1c-0.9,0.3-1,1.3-0.9,2.3c0.4,3.3,0.9,6.6,1.3,9.8c0.1,1.1,0.6,2.4-0.9,3
			c-0.3,0.1-0.6,0.2-0.9,0.2c-1,0-1.7-0.6-2.3-1.6c-3.1-4.6-3.5-10-4.3-15.2c-0.3-2-0.3-4-1.4-5.8c-0.4-0.7-0.1-2-1.3-2c0,0,0,0,0,0
			c-1.3,0-1.9,1.1-2.2,2.3c-0.9,3.5,0,6.8,0.6,10.2c0.3,1.5,0.6,3,0.7,4.5c0.1,1,0.5,2.4-1.1,2.9c-0.4,0.1-0.7,0.1-1,0.1
			c-0.9,0-1.7-0.4-2.4-1.1c-2.2-2.3-3.1-5.1-3.2-8.3c-0.3-7.8-1.9-15.3-4.2-22.8c-0.1-0.3-0.5-0.5-1-1c-1.7,3-3.1,5.7-2.2,9.3
			c0.6,2.2,0.4,4.5,0.5,6.8c0,0.9,0.3,1.9-0.8,2.3c-0.3,0.1-0.5,0.2-0.7,0.2c-0.6,0-1.2-0.3-1.7-0.7c-3.1-2.1-4.6-5.2-4.4-8.8
			c0.2-4.2-1.8-7.9-1.9-12c0-0.6-0.2-1.4-0.9-1.5c-0.1,0-0.2,0-0.3,0c-0.7,0-1.2,0.5-1.6,1.1c-0.8,1.1-0.6,2.4-0.7,3.7
			c-0.1,1.9,0,3.8-0.3,5.7c-0.2,1-0.6,2.4-2,2.4c0,0,0,0,0,0c-1.3,0-1.3-1.3-1.8-2.2c-2.9-5.6-1.7-12-3.6-17.8
			c-0.2-0.7-0.2-1.5-0.4-2.2c-0.2-0.9-0.8-1.6-1.7-1.6c0,0-0.1,0-0.1,0c-1.2,0.1-1.4,1-1.4,1.9c0,1.3,0.1,2.5,0.2,3.8
			c0.1,0.8,1,1.7-0.3,2.2c-0.2,0-0.3,0.1-0.4,0.1c-0.8,0-1.2-0.8-1.6-1.5c-2.7-4.7-4.6-9.7-4.8-15.1c-0.2-5.7-0.1-11.5-0.1-17.2
			c0-2.3,0.6-3.3,1.9-3.3c0.6,0,1.4,0.2,2.4,0.6c4.6,2,7.8,5.7,10.6,9.6c1.2,1.7,2.3,2.6,3.6,2.6c1,0,2.1-0.6,3.5-1.7
			c7.5-6.3,16.2-8.9,25.8-8.9c0.5,0,1,0,1.5,0c0.6,0,1.3,0.2,1.9,0.2c0.8,0,1.4-0.3,1.5-1.3c0.2-1.8-1.8-2-3.1-2.1
			c-5.9-0.5-11.7-2-17.7-2c-0.3,0-0.6,0-0.9,0c-0.1,0-0.3,0-0.4,0c-4,0-7.4-1.5-9.4-5.4c-1.9-3.8-1.1-5.7,3-6.6
			c2.6-0.6,5.3-0.8,7.9-0.8c3.1,0,6.1,0.3,9.2,0.6c0.9,0.1,2.2,0.6,3.2,0.6c0.7,0,1.3-0.2,1.5-1.1c0.5-1.9-2.5-1.5-3.8-2.1
			c-5.6-2.5-11.7-3.5-17.6-4.8c-11.9-2.5-17.1-9.4-16.3-21.5c0.1-1.1-0.1-2.5,1.3-2.9c0.2,0,0.3-0.1,0.4-0.1c1.2,0,1.3,1.3,1.7,2.2
			c0.5,1,0.9,2.1,1.4,3.1c0.6,1,0.9,2.6,2.1,2.6c0.1,0,0.1,0,0.2,0c1.3-0.2,1.8-1.9,1.9-3c0.4-4.8,0.8-9.6,0.6-14.4
			c-0.2-3.4-2.8-5.7-5.9-7c-5.1-2.2-7.6-6.2-9.2-11.4c-5.5-16.6-2.5-31.3,9-44.4c5-5.7,9.6-11.7,11.8-19.3c1.2-4.1,4.2-7.5,7-10.9
			c4-4.9,7.9-9.9,10.7-15.8c1.3-2.9,3.9-4.2,6.7-5.2c7.5-2.5,15.1-3.4,22.9-3.4c1.5,0,3.1,0,4.6,0.1c7.2,0.3,14.4,1.3,21.6,1.3
			c3.6,0,7.2-0.3,10.8-1C219.5,88.1,221.5,87.9,223.3,87.9 M223.3,83.9L223.3,83.9c-2.2,0-4.4,0.2-6.6,0.7c-3,0.6-6.3,0.9-10,0.9
			c-4,0-8-0.3-12.2-0.7c-3-0.2-6.1-0.5-9.3-0.6c-1.6-0.1-3.3-0.1-4.8-0.1c-9.1,0-17,1.2-24.2,3.6c-3.1,1.1-7,2.8-9.1,7.3
			c-2.5,5.4-6.2,10.1-10.1,14.9c-0.3,0.3-0.5,0.7-0.8,1c-2.6,3.2-5.6,6.8-6.9,11.3c-1.9,6.6-5.8,11.9-11,17.8
			c-12.4,14.2-15.7,30.4-9.8,48.3c1.6,4.8,4.4,10.8,11.5,13.8c1.2,0.5,3.3,1.7,3.4,3.5c0.1,2.3,0.1,4.7-0.1,7.1
			c-1-1.2-2.3-1.9-4-1.9c-0.4,0-0.9,0.1-1.3,0.2c-1.9,0.4-4.2,1.9-4.4,6.2c0,0.1,0,0.2,0,0.3c-0.9,13.8,5.4,22.4,18.8,25.5
			c-1.4,0.4-4.7,1.3-6.2,4.4c-1.5,3.3,0.3,6.8,0.8,7.9c2.6,4.9,7,7.5,12.9,7.5c0.2,0,0.3,0,0.5,0c0.1,0,0.3,0,0.4,0
			c-4.4,1.6-8.5,4-12.2,7.1c-0.3,0.2-0.5,0.4-0.7,0.5c-0.1-0.2-0.3-0.4-0.5-0.7c-2.9-4.1-6.7-8.5-12.3-11c-1.5-0.7-2.8-1-4-1
			c-1.4,0-5.9,0.5-5.9,7.3l0,1.3c-0.1,5.3-0.1,10.7,0.1,16.1c0.2,5.5,1.9,11.1,5.4,17l0.1,0.1c0.5,0.8,1.9,3.3,5,3.3
			c0.5,0,1-0.1,1.5-0.2c0,0,0,0.1,0,0.1c0.3,3.6,0.7,7.7,2.8,11.6c0,0.1,0.1,0.2,0.1,0.2c1,2.7,2.7,4,5.2,4.1l0,0l0.1,0
			c1.2,0,2.6-0.4,3.7-1.4c0.4,4.1,2.5,7.7,6.1,10.2c0.9,0.6,2.2,1.4,4,1.4c0.8,0,1.6-0.2,2.3-0.5c0.6-0.3,1.3-0.7,1.9-1.3
			c0.1,1,0.2,2,0.2,3c0.2,4.5,1.6,8.1,4.3,10.9c1.5,1.5,3.3,2.3,5.3,2.3c0.7,0,1.4-0.1,2.1-0.3c0.7-0.2,2-0.7,2.9-1.8
			c0.5,1.1,1.1,2.3,1.8,3.3c1.8,2.7,4.1,3.3,5.6,3.3c0.8,0,1.5-0.1,2.3-0.4c0.8-0.3,2-0.9,2.7-2.1c0.7,0.9,1.5,1.7,2.6,2.4l4.4,3.1
			l1.7-5.1c0,0,0,0,0,0c0.1,0.1,0.2,0.3,0.3,0.4c0.2,0.3,0.4,0.7,0.7,1.1c2.6,3.7,6.4,5.7,10.6,5.7c0.7,0,1.5-0.1,2.3-0.2
			c2.2-0.4,4.3-0.9,6.3-1.5c3.2-0.8,6.3-1.6,9.3-1.6c0.2,0,0.4,0,0.5,0l5,0.2l-1-4.9c-0.7-3.3-2.9-4.6-4-5.2
			c-0.1-0.1-0.2-0.1-0.3-0.2c-0.6-0.4-1.2-0.9-1.8-1.3c-3.4-2.4-6.6-4.8-9.6-7.4c-4-3.7-4.9-7.2-2.9-12c1.3-3.2,2.8-6.8,2.8-11.1
			c0-3.3,1.2-5.9,3.7-7.9c5.2-4.3,5-9.4,4.2-13.4c-0.5-2.6-1.4-4.9-2.2-7.2c-1-2.7-1.9-5.2-2.1-7.7c-0.6-6.6,0.6-13,1.8-19.8
			c0.3-1.9,0.7-3.8,1-5.7c0-0.2,0.1-0.4,0.1-0.6c0.3-1.3,1.2-4.8-1.9-7.2c-1-0.8-2.3-1.2-3.6-1.2c-0.8,0-1.6,0.2-2.3,0.4
			c1.7-1.9,3-3.9,4-5.6c0.4-0.7,0.9-1.4,1.3-2c0.6-0.9,1.2-1.8,1.7-2.8c0-0.1,0.1-0.1,0.2-0.2c2.8-3.6,1.1-6.2,0.3-7.2
			c-1-1.2-2.4-1.8-4-1.8c-0.7,0-1.4,0.1-1.9,0.3c1-4.3,1.3-8.7,0.2-13.3c-1.3-5.1-4.5-5.7-5.9-5.7c-0.7,0-1.4,0.1-2,0.4
			c1.4-3.6,2.7-7.6,2.6-12.1c3.7,20,23.7,36.4,45.1,36.4c3.8,0,7.5-0.5,11-1.6c4.4-1.3,7.6-4.4,9.2-8.8c1.6-4.3-0.4-7.2-2.8-8.6
			c-0.3-0.2-0.4-0.3-0.5-0.3c0,0-0.2-0.4,0.2-1.8c0.9-3.5,1.3-7.3,1.5-11.8c0.3-10.6-0.1-21.5-1.2-33.3c-0.1-0.7-0.1-1.4-0.1-2.2
			c0-2.9-0.1-6.9-3.1-10.1c-0.3-0.3-0.5-0.5-0.6-0.7c0.1-0.2,0.4-0.7,1.1-1.5c0.5-0.7,1.2-1.4,1.9-2.2c2.3-2.6,5.3-5.8,5.6-10.5
			c0.8-10,0.4-22.8-9.4-32.7C243.6,90.7,235.2,83.9,223.3,83.9L223.3,83.9L223.3,83.9z M190.3,161.9c4.6,0,6.4-4.8,6.9-6.3
			c1.4-3.9,4.1-6.2,7.4-7.9c-6.6,8-10.5,16.3-11.8,25c-0.7-1-1.7-1.9-3-2.6c-6.4-3.5-11.3-8.7-15.7-14.4c0.4-0.2,0.7-0.4,1.1-0.6
			c1.8-1.2,2.5-2.8,2.6-4.3c1.7,2.6,3.7,5.1,5.9,7.4C185.3,160,187.5,161.9,190.3,161.9L190.3,161.9z"/>
	</g>
	<g>
		<path d="M235.9,240.5c1.5,0,3,0,4.5,0c2.7,0,5.5,0,8.2,0c2.1,0,4.2,0,6.3,0c16.9,0,33.9,0,50.8,0.3c8.2,0.2,16.6,0.2,24.7,2.1
			c2,0.5,3.9,1.2,5.8,1.7c4.1,1.1,5.6,3.6,5.2,7.9c-0.6,8-1.3,16-3.8,23.7c-0.3,0.9-0.2,2.3-1.5,2.3c0,0-0.1,0-0.1,0
			c-1.1,0-1.6-1-2.1-1.8c-1.7-2.8-1.6-5.9-0.9-8.9c0.6-2.6,0.4-5-0.1-7.5c-0.2-1-0.1-2.3-1.3-2.4c0,0-0.1,0-0.1,0
			c-1.1,0-1.4,1.3-1.6,2.2c-1.6,6.7-3,13.4-4.7,20c-0.8,3.1-0.8,5.9,1.1,8.6c2.1,2.9,1.2,5.5-1.5,7.6c-3.4,2.6-7.1,4.1-11.1,4.1
			c-1.7,0-3.6-0.3-5.4-0.9c-5.7-1.9-11.4-3.3-17.4-3.3c-0.5,0-1.1,0-1.6,0c-0.1,0-0.2,0-0.3,0c-1.5,0-3.1-0.5-4.5-0.9
			c-3.5-1.1-7.1-1.8-10.7-1.8c-1.1,0-2.2,0.1-3.3,0.2c-1.2,0.1-2.5,0.2-3.7,0.2c-4.8,0-9.4-0.9-14.1-1.8c-3.6-0.7-4.3-2.7-3.8-5.7
			c0.5-3.8,1.1-7.6,1.6-11.3c0.3-2.1,0-4.1-0.7-6c-0.3-0.8-0.6-1.8-1.7-1.8c0,0,0,0,0,0c-1.1,0-1.3,1-1.6,1.8
			c-1.7,4-1.8,8.2-1.8,12.4c0.1,5.4-1,6.6-6.2,7.6c-1.9,0.3-3.8,0.5-5.7,0.5c-2.2,0-4.3-0.1-6.5-0.2c-1.4,0-2.9-0.1-4.3-0.1
			c-0.9,0-1.7,0-2.6,0.2c-0.5,0.1-1,0.1-1.4,0.1c-3.1,0-5.1-1.7-6.5-4.6c-2.6-5.2-3.9-10.7-3.5-16.6c0.5-7.2,0.2-14.4,3.1-21.4
			c1.4-3.4,3.3-5.2,6.8-5.6C223.9,240.6,229.9,240.5,235.9,240.5 M235.9,236.5c-5.9,0-12.2,0.1-18.5,0.9c-6.3,0.8-8.7,5-10,8.1
			c-2.6,6.3-2.9,12.7-3.2,18.8c-0.1,1.3-0.1,2.5-0.2,3.8c-0.4,6.3,0.9,12.4,3.9,18.6c2.8,5.7,7,6.9,10.1,6.9c0.6,0,1.3-0.1,2-0.2
			c0.6-0.1,1.2-0.1,2-0.1c0.6,0,1.3,0,2,0c0.7,0,1.4,0.1,2.2,0.1c0.5,0,0.9,0,1.4,0.1c1.7,0.1,3.4,0.2,5.2,0.2
			c2.4,0,4.4-0.2,6.4-0.5c2.7-0.5,4.7-1.2,6.1-2.2c1.2,3.7,4.5,4.9,6.8,5.3l0.6,0.1c4.6,0.8,9.3,1.7,14.2,1.7c1.4,0,2.8-0.1,4.1-0.2
			c0.9-0.1,1.9-0.2,2.9-0.2c3.1,0,6.2,0.5,9.4,1.6c1.8,0.6,3.8,1.1,5.8,1.1c0.2,0,0.3,0,0.5,0c0.5,0,1,0,1.5,0c4.8,0,10,1,16.2,3.1
			c2.2,0.8,4.5,1.1,6.7,1.1c4.7,0,9.2-1.7,13.5-5c4.7-3.6,5.6-8.6,2.4-13.1c-0.9-1.2-1.2-2.5-0.5-5.3c0.3-1.1,0.6-2.3,0.8-3.4
			c0.2,0.4,0.4,0.8,0.6,1.1l0.1,0.1c0.7,1.1,2.2,3.6,5.5,3.6c0.1,0,0.2,0,0.4,0c1.5-0.1,4.2-0.9,5-4.9c0-0.1,0-0.2,0.1-0.3
			c2.5-7.8,3.2-15.8,3.9-24.5c0.6-7.9-4.1-11-8.1-12.1c-0.7-0.2-1.4-0.4-2.2-0.7c-1.2-0.4-2.5-0.8-3.8-1.1c-8-1.9-16.1-2.1-23.9-2.2
			l-1.6,0c-16.6-0.3-32.8-0.3-50.9-0.3l-3.2,0l-3.2,0c-2.7,0-5.5,0-8.2,0l-2,0C237.6,236.5,236.7,236.5,235.9,236.5L235.9,236.5z"/>
	</g>
	<g>
		<path d="M327,163.6c1.3,0,2.6,0,4,0.1c5.4,0.3,7.4,2.1,8.9,7.2c0.6,2.2,1.5,4.2,2.4,6.6c1.8-1.7,1-3.5,1.2-5.2
			c0.3-2.1,0.5-4.7,2.7-4.9c0.1,0,0.2,0,0.3,0c2.1,0,3,2.5,3.8,4.4c0.2,0.5,0.2,1.3,0.2,1.9c0.2,14.7,0.1,29.3-3.1,43.7
			c-0.3,1.4-0.7,2.7-1.1,4c-0.6,1.8-1.4,3.1-2.7,3.1c-0.7,0-1.5-0.4-2.5-1.2c-0.8-0.6-1.5-0.9-2.1-0.9c-1,0-1.9,0.6-2.9,1.6
			c-0.9,0.9-1.9,1.8-3,2.3c-0.8,0.4-1.6,0.6-2.3,0.6c-1.9,0-3.4-1.4-3.6-4c-0.2-3.2,0-6.4-0.1-9.5c0-1.1,0.5-2.6-1-2.9
			c-0.1,0-0.2,0-0.2,0c-1,0-1.2,1.3-1.5,2.2c-1.3,3.5-2.5,6.9-3.7,10.4c-2.9,8.8-4.5,9.8-13.6,9.9c-9,0.1-18.1,0.5-27.1,0.8
			c-2,0.1-4,0.1-6,0.1c-8.1,0-16.1-0.5-24.1-0.9c-0.7,0-1.5-0.1-2.2-0.1c-7.3,0-14.4,1.8-21.6,2.6c-1.2,0.1-2.4,0.2-3.7,0.2
			c-2.2,0-4.4-0.2-6.6-0.5c-7.6-0.9-9.8-9.9-7.8-15.5c0.4-1.1,1.1-1.5,2-1.5c1,0,2.1,0.5,3,0.9c5.5,2.3,10.9,5,16.8,5.9
			c2.5,0.4,5,0.6,7.5,0.6c7.7,0,14.8-2.3,21.1-7.8c3.2-2.8,4.4-6,3.8-10.5c-1.2-8.4-2.8-16.9-1.1-25.4c0.7-3.6,1.7-6.9,4.8-9.2
			c0.9-0.7,1.8-1.6,3-1.6c0.3,0,0.7,0.1,1.1,0.3c1.6,0.9,2.6,2.3,2.6,4.3c-0.1,2.6,0,5.2,0,7.9c0.4,0.1,0.7,0.1,1.1,0.2
			c1.5-2.2,2.2-4.7,2.4-7.4c0.1-1.9,0.9-3.2,2.8-3.5c12.2-2,23.7-6.7,36-8.3C318.7,164,322.9,163.6,327,163.6 M327,159.6
			c-3.9,0-8,0.3-13,1c-6.7,0.9-13.2,2.7-19.5,4.4c-5.7,1.6-11,3-16.6,3.9c-1.3,0.2-2.5,0.7-3.4,1.4c-0.8-1-1.7-1.8-2.9-2.4
			c-1-0.5-2-0.8-3-0.8c-2.3,0-3.9,1.3-4.9,2.1c-0.1,0.1-0.3,0.2-0.4,0.3c-4.1,3.1-5.5,7.4-6.4,11.7c-1.6,8.3-0.5,16.2,0.6,23.9
			c0.1,1,0.3,1.9,0.4,2.9c0.4,3.1-0.3,4.9-2.5,6.9c-5.2,4.6-11.2,6.8-18.4,6.8c-2.1,0-4.4-0.2-6.8-0.6c-4.4-0.7-8.5-2.5-12.8-4.4
			c-1-0.4-2.1-0.9-3.1-1.3l-0.2-0.1c-1.1-0.5-2.6-1.1-4.4-1.1c-2.7,0-4.8,1.6-5.7,4.2c-1.7,4.7-1,10.5,1.6,14.8
			c2.2,3.5,5.5,5.6,9.5,6.1c1.9,0.2,4.5,0.5,7.1,0.5c1.5,0,2.8-0.1,4.1-0.2c2.5-0.3,5.1-0.7,7.5-1.1c4.7-0.8,9.2-1.5,13.7-1.5
			c0.7,0,1.4,0,2,0.1l3.4,0.2c6.8,0.4,13.9,0.7,20.9,0.7c2.2,0,4.2,0,6.2-0.1c1.9-0.1,3.8-0.1,5.6-0.2c7-0.3,14.3-0.5,21.4-0.6
			c10.4-0.1,13.6-2,16.8-10.9c1.2,3,3.7,4.9,6.9,4.9c1.4,0,2.8-0.3,4.1-1c1.7-0.9,3-2.1,4-3.1c0,0,0,0,0,0c1.5,1.2,3,1.8,4.6,1.8
			c2.1,0,4.9-1,6.5-5.9c0.4-1.3,0.8-2.7,1.2-4.4c3.4-14.8,3.4-29.6,3.2-44.6c0-0.1,0-0.2,0-0.3c0-0.8,0-1.9-0.5-3.2
			c-0.1-0.2-0.2-0.4-0.3-0.6c-0.9-2-2.7-6.1-7.2-6.1c-0.2,0-0.5,0-0.7,0c-1.7,0.2-3,0.9-3.9,1.9c-2.1-3.6-5.5-5.3-10.6-5.6
			C329.9,159.7,328.5,159.6,327,159.6L327,159.6z"/>
	</g>
	<g>
		<path d="M219.5,296.7c7.1,0,14.2,1,21.2,1.8c6.2,0.7,12.3,1.6,18.6,1.6c1.8,0,3.6-0.1,5.4-0.3c0.9-0.1,1.8-0.1,2.7-0.1
			c6,0,11.7,2,17.1,4.7c3.7,1.8,7.3,3.1,11.4,3.1c0.7,0,1.4,0,2.1-0.1c0.3,0,0.6,0,0.8,0c3.5,0,6.4,2.5,7.2,6.2
			c1.8,8.3-0.4,16.1-3,23.9c-0.7,2-2.7,3-4.6,3.8c-8.4,3.7-17.2,6-26,8.6c-1.5,0.5-3.1,0.7-4.7,0.7c-2.9,0-5.9-0.7-8.7-1.9
			c-2.3-1-4.6-1.4-6.9-1.4c-1.4,0-2.8,0.1-4.2,0.4c-1.9,0.4-3.7,0.5-5.5,0.5c-5.4,0-10.6-1.6-15.4-5.2c-5.9-4.3-5.9-10.2-5.7-15.6
			c-0.2-4.4-0.1-7.9,0.7-11.4c0.2-1,0.8-3-0.8-3.3c-0.2,0-0.3,0-0.4,0c-1.4,0-1.4,1.8-1.8,2.9c-2.4,6.8-3.4,13.8-2.9,21
			c0.1,1.3,0.8,3-1,3.7c-0.5,0.2-0.9,0.3-1.3,0.3c-1.2,0-2.2-0.7-3.2-1.5c-2.3-2-2.8-4.7-3.1-7.5c-0.7-7.7,1.8-14.8,3.2-22.1
			c0.2-0.9,1.4-2.1-0.1-2.6c-0.2-0.1-0.4-0.1-0.5-0.1c-1,0-1.4,1.1-1.9,2c-2.3,4.6-3.4,9.5-4.4,14.5c-0.2,1-0.4,2-0.7,3
			c-0.4,1.4-0.5,3.3-2.4,3.5c-0.1,0-0.2,0-0.3,0c-1.7,0-2.6-1.5-3.4-2.9c-0.7-1.2-1-2.6-0.7-4.1c1.2-5.7,2.4-11.4,3.7-17.1
			c1.1-4.5,3.8-6.9,8.6-7.9C212.1,296.9,215.8,296.7,219.5,296.7 M219.5,292.7L219.5,292.7c-4.3,0-8.1,0.3-11.8,1.1
			c-6.4,1.2-10.3,4.9-11.7,10.9c-1,4.4-2,8.9-2.9,13.3c-0.3,1.3-0.6,2.6-0.8,4c-0.5,2.4-0.1,4.8,1.2,7l0.1,0.2
			c0.9,1.5,2.8,4.6,6.7,4.6c0.3,0,0.5,0,0.8,0c1-0.1,1.8-0.4,2.5-0.8c0.4,3.1,1.3,6.5,4.3,9.2c1.9,1.7,3.8,2.5,5.9,2.5
			c1,0,1.9-0.2,2.9-0.6c1.2-0.5,2.5-1.4,3.2-3.1c1.1,1.9,2.7,3.7,4.9,5.4c5.4,3.9,11.3,5.9,17.7,5.9c2,0,4.1-0.2,6.3-0.6
			c1.3-0.2,2.4-0.3,3.5-0.3c1.9,0,3.6,0.4,5.3,1.1c3.5,1.5,6.9,2.3,10.3,2.3c2,0,4-0.3,5.9-0.8c1.6-0.5,3.2-0.9,4.8-1.4
			c7.2-2.1,14.6-4.2,21.7-7.4c1.9-0.9,5.5-2.5,6.8-6.2c2.7-8.1,5.2-16.7,3.1-26c-1.2-5.6-5.7-9.3-11.1-9.3c-0.4,0-0.9,0-1.3,0.1
			c-0.6,0.1-1.1,0.1-1.7,0.1c-2.9,0-5.8-0.8-9.6-2.7c-7.1-3.5-13.1-5.1-18.9-5.1c-1.1,0-2.1,0.1-3.1,0.2c-1.6,0.2-3.2,0.2-4.9,0.2
			c-4.4,0-8.8-0.5-13.5-1.1c-1.6-0.2-3.1-0.4-4.7-0.5c-1.4-0.2-2.8-0.3-4.3-0.5C231.2,293.3,225.4,292.7,219.5,292.7L219.5,292.7z"
			/>
	</g>
	<g>
		<path d="M302.2,101.7c5.4,0,9.6,2.5,12.9,7.1c7.2,10.1,11.2,21,10.2,33.5c-0.2,2.2,0,5.4-2.5,5.8c-0.2,0-0.3,0-0.5,0
			c-2.2,0-2.9-2.9-3.7-4.8c-1.7-4.1-1.5-8.8-3.5-12.8c-0.4-0.9-0.5-2.3-1.7-2.3c-0.1,0-0.2,0-0.4,0c-1.6,0.3-0.9,1.9-0.9,2.9
			c-0.2,3.2,0.1,6.3,1,9.4c0.8,2.6,1,5.4,0.3,7.9c-0.9,3.2-1.1,5.5,3.1,5.7c0.6,0,0.9,0.4,0.9,1c-0.1,0.8-0.8,0.8-1.4,1
			c-7.2,1.6-14.3,3.5-21.7,4.2c-4.6,0.4-9.2,0.9-13.4,0.9c-1.1,0-2.2,0-3.3-0.1c-2.7,0-5,0-7.2,0c-1.5,0-2.9,0-4.4,0
			c-0.1,0-0.1,0-0.2,0c-2.1,0-3.3-0.9-2.8-3.2c3.1-16.1,0-31.6-4.3-47c-1.6-5.8-1.1-6.7,5-7.1c12.4-0.9,24.9-1.6,37.4-2.2
			C301.5,101.7,301.9,101.7,302.2,101.7 M302.2,97.7c-0.4,0-0.8,0-1.2,0c-12.2,0.6-24.8,1.3-37.4,2.2c-3.4,0.2-6.6,0.7-8.3,3.2
			c-1.9,2.7-1,6.2-0.2,9c4,14.3,7.3,29.7,4.2,45.2c-0.5,2.8,0.3,4.6,1.2,5.6c1.2,1.5,3.1,2.3,5.6,2.3c0.1,0,0.2,0,0.3,0
			c1.2,0,2.6,0,4.3,0c1,0,2.1,0,3.3,0c1.2,0,2.5,0,3.8,0c1.1,0.1,2.2,0.1,3.4,0.1c4.3,0,9.1-0.5,13.7-0.9l0.1,0
			c6.1-0.6,12-1.9,17.7-3.2c1.5-0.3,3-0.7,4.5-1l0.1,0c3.7-0.7,4.3-3.3,4.4-4.5c0.1-1.4-0.3-2.7-1.1-3.7c0,0,0-0.1-0.1-0.1
			c0.6,0.2,1.3,0.3,2.1,0.3c0.4,0,0.7,0,1.1-0.1c5.2-0.9,5.6-6.3,5.7-8.7c0-0.3,0-0.5,0.1-0.8c1-12.5-2.6-24.3-10.9-36.2
			C314.2,100.6,308.8,97.7,302.2,97.7L302.2,97.7z M317.2,150.3c0-0.2,0.1-0.4,0.2-0.6c0.2,0.3,0.5,0.6,0.7,0.8
			C317.8,150.4,317.5,150.3,317.2,150.3L317.2,150.3z"/>
	</g>
	<g>
		<path d="M221.5,45.1c23.7,0,46.6,4.6,68.2,13.8c20.9,8.8,39.6,21.5,55.7,37.6c16.1,16.1,28.7,34.8,37.6,55.7
			c9.1,21.6,13.8,44.6,13.8,68.2c0,23.7-4.6,46.6-13.8,68.2c-8.8,20.9-21.5,39.6-37.6,55.7c-16.1,16.1-34.8,28.7-55.7,37.6
			c-21.6,9.1-44.6,13.8-68.2,13.8c-23.7,0-46.6-4.6-68.2-13.8c-20.9-8.8-39.6-21.5-55.7-37.6c-16.1-16.1-28.7-34.8-37.6-55.7
			C50.9,267,46.3,244,46.3,220.3c0-23.7,4.6-46.6,13.8-68.2c8.8-20.9,21.5-39.6,37.6-55.7c16.1-16.1,34.8-28.7,55.7-37.6
			C174.9,49.7,197.9,45.1,221.5,45.1 M76.2,238c1,0,2.3-0.3,3.2-0.4c4.2-0.7,8.3-1.2,12.5-1.2c0.6,0,1.3,0,1.9,0
			c4.7,0.2,8.8,2.4,8.8,4.7c0,2.6-4.5,5.5-8.9,5.5c-0.1,0-0.1,0-0.2,0c-0.1,0-0.2,0-0.3,0c-3.2,0-6.3,1-9.5,1
			c-0.8,0-1.6,0.2-1.6,1.2c0,1,0.8,1.1,1.6,1.3c0.6,0.2,1.2,0.3,1.8,0.3c0.5,0,1-0.1,1.5-0.2c2.1-0.6,4.2-0.8,6.3-0.8
			c1.1,0,2.1,0,3.2,0.1c5.7,0.3,7,2,5.7,7.5c-1,4.1-2.2,8.1-3.1,12.2c-1.6,7.1-3.2,14.4,0.6,21.2c9.5,16.9,21.3,32,36.7,44
			c5.4,4.2,11.6,7.3,17.5,10.8c1.2,0.7,3,1,3.2,2.8c-0.3,0.5-0.7,0.6-1.1,0.6c-0.2,0-0.5,0-0.7,0c0,0,0,0,0,0c-0.1,0-0.1,0-0.2,0
			c-5.7,0-11-2.3-16.5-3.4c-2.1-0.4-4.1-0.7-6.1-0.7c-2,0-3.9,0.3-5.8,1.2c-0.2,0.1-0.4,0.2-0.6,0.3c26.5,20.2,59.6,32.2,95.5,32.2
			c87.1,0,157.7-70.6,157.7-157.7S308.6,62.6,221.5,62.6c-49.5,0-93.6,22.8-122.5,58.4c0.5,0.4,1.1,0.7,2,0.9
			c5.4,1.6,10.9,3.1,16.4,4.8c4.7,1.4,4.7,1.6,1.8,5.8c-1.7,2.4-3.4,4.8-4.9,7.3c-5.2,9.2-9,19.1-14.4,28.1
			c-0.9,1.5-1.1,3.3-1.3,5.1c-0.7,9.2,1.1,17.9,4.4,26.5c2,5.2,3.8,10.5,5.4,15.8c1.4,4.4,0.2,7.9-3.8,10.6
			c-3.2,2.1-6.6,3.8-10.3,4.8c-5.1,1.5-10.3,2.5-15.7,3.3c-1.8,0.2-5.1,0.4-4.8,2.5C74.2,237.6,75.1,238,76.2,238 M221.5,41.1
			c-24.2,0-47.7,4.7-69.8,14.1c-21.4,9-40.5,22-57,38.4c-16.5,16.5-29.4,35.6-38.4,57c-9.4,22.1-14.1,45.6-14.1,69.8
			S47,268,56.4,290.1c9,21.4,22,40.5,38.4,57c16.5,16.5,35.6,29.4,57,38.4c22.1,9.4,45.6,14.1,69.8,14.1s47.7-4.7,69.8-14.1
			c21.4-9,40.5-22,57-38.4c16.5-16.5,29.4-35.6,38.4-57c9.4-22.1,14.1-45.6,14.1-69.8s-4.7-47.7-14.1-69.8c-9-21.4-22-40.5-38.4-57
			c-16.5-16.5-35.6-29.4-57-38.4C269.2,45.8,245.7,41.1,221.5,41.1L221.5,41.1z M105.8,119.2c29.2-33.5,71.1-52.6,115.7-52.6
			c84.7,0,153.7,68.9,153.7,153.7S306.3,374,221.5,374c-30.3,0-59.1-8.6-84.1-25.1c0.2,0,0.3,0.1,0.5,0.1c1.7,0.3,3.5,0.8,5.3,1.3
			c3.8,1,7.7,2.1,12,2.1l0.2,0l0.1,0c0.2,0,0.4,0,0.6,0c1.9,0,3.5-0.9,4.5-2.5l0.7-1.2l-0.2-1.4c-0.4-3.6-3.3-5-4.6-5.5
			c-0.2-0.1-0.4-0.2-0.5-0.3c-1.5-0.9-3-1.7-4.5-2.6c-4.5-2.5-8.7-4.9-12.6-7.9c-14-10.9-25.6-24.9-35.6-42.8
			c-3.1-5.5-1.7-11.7-0.2-18.3l0-0.1c0.5-2.3,1.1-4.7,1.7-7.1c0.4-1.7,0.9-3.4,1.3-5.1c0.7-2.7,1.2-6.2-0.9-8.9
			c-0.6-0.7-1.2-1.3-1.9-1.8c2-1.6,3.3-3.7,3.3-6.1c0-3.7-3.2-6.4-7.3-7.8c2.7-1.1,5.2-2.4,7.7-4c5.4-3.6,7.3-9,5.4-15.1
			c-1.6-5.2-3.4-10.7-5.5-16.1c-3.4-8.8-4.8-16.9-4.2-24.7c0.1-1.3,0.2-2.6,0.7-3.4c3-5.1,5.6-10.4,8-15.5c2-4.2,4.1-8.6,6.4-12.7
			c1.2-2.1,2.7-4.2,4.2-6.4l0.4-0.6c1.9-2.7,3.4-4.8,2.5-7.6c-0.9-2.7-3.6-3.5-6.4-4.4c-2.8-0.8-5.6-1.6-8.3-2.4
			C108.8,120.1,107.3,119.6,105.8,119.2L105.8,119.2z"/>
	</g>
</g>
<circle cx="223.3" cy="220.3" r="175.9"/>
<g>
	<path class="st11" d="M206.2,349.6c-4.2-3.1-8.5-6-12.4-9.5c-5.4-4.9-7-10.5-4.1-17.4c1.3-3.2,2.7-6.4,2.6-10
		c0-4.7,1.8-8.7,5.4-11.6c3.4-2.8,3.8-5.9,3-10c-1.1-5.5-4-10.5-4.6-16.2c-0.9-9.5,1.5-18.6,3-27.9c0.2-1.4,1.1-3.1-0.3-4.1
		c-1.4-1.1-2.8,0.2-4.1,0.7c-4.3,1.8-8.4,4.4-13.2,4.7c-2.3,0.1-5.9,2.6-6.7-0.4c-0.8-2.9,3.3-3.8,5.7-4.5c7.1-2,11.7-6.8,15.3-12.8
		c1-1.7,2.2-3.4,3.2-5.1c0.5-0.9,1.8-1.8,0.9-2.8c-1-1.1-2.3-0.1-3.3,0.4c-2.2,1.1-3,3.4-4.4,5.1c-0.6,0.7-1.3,1.1-2.1,0.7
		c-0.9-0.5-0.6-1.4-0.3-2.1c0.4-1,0.9-2,1.2-3c1.9-6,3.6-12.1,2-18.5c-0.8-3.3-2.4-3.6-4.6-1.1c-2.6,3.1-4.9,6.4-7.4,9.5
		c-0.8,1-1.7,3.2-3.3,2.1c-1.3-0.9,0.2-2.4,0.8-3.5c1.5-3.3,3.4-6.4,4.5-9.8c1.9-5.7,4.9-11.2,4.3-17.4c-0.3-2.7-0.4-5.2,0.8-7.8
		c1.2-2.5,0.6-4.8-1.9-6.2c-10.7-5.9-17.5-15.6-24.3-25.3c-1-1.5-2.2-3-2.4-4.9c0.4-0.3,0.8-0.7,1.2-1c2,2.3,4,4.6,6,6.9
		c1,1.1,2.2,2.3,3.8,1.3c1.5-1,0.8-2.6,0.4-4c-0.3-0.9-0.7-1.7-1-2.6c-1.6-5.4-3.3-10.7-4.7-16.2c-0.4-1.4-0.9-3.9,0.7-4.4
		c2.1-0.6,1.8,2,2.4,3.3c4.6,9.8,8.9,19.8,16.5,27.8c3.5,3.7,5.5,3.3,7.2-1.5c3.4-9.2,11.6-11.6,19.6-14.3c2.3-0.8,3.1,0.9,1.9,2.7
		c-1,1.7-2.6,3-4,4.5c-10.1,11.1-16,23.6-14.3,39c2.6,24.3,30.6,43,54.1,36c3.5-1,5.7-3.3,7-6.7c0.5-1.5,0.6-3-1-3.9
		c-2.9-1.6-3-4.1-2.3-6.9c1-3.8,1.3-7.6,1.4-11.5c0.3-11.5-0.2-23.1-1.2-34.6c-0.3-3.5,0.5-7.6-2.2-10.4c-2.9-3-1.9-5,0.3-7.8
		c2.7-3.4,6.6-6.3,7-11c0.9-11.4-0.2-22.5-8.7-31.1c-8.8-8.8-18.3-16-32.2-13.1c-11.3,2.3-22.7,0.1-34.1-0.3
		c-9.8-0.4-19.5,0.3-29,3.4c-3,1-5.7,2.4-7.1,5.5c-2.9,6.1-7,11.4-11.2,16.6c-2.9,3.5-6,7.1-7.3,11.4c-2.3,8-7.2,14.3-12.5,20.3
		c-12.1,13.8-15.2,29.3-9.5,46.7c1.8,5.4,4.3,9.7,9.7,12c3.3,1.4,6,3.8,6.2,7.4c0.3,5-0.2,10.1-0.6,15.2c-0.1,1.2-0.7,3-2,3.2
		c-1.5,0.2-1.9-1.6-2.5-2.8c-0.6-1-1-2.2-1.5-3.3c-0.5-1-0.6-2.7-2.3-2.3c-1.5,0.3-1.3,1.8-1.4,3c-0.9,12.7,4.6,19.9,17.2,22.6
		c6.3,1.3,12.6,2.5,18.6,5.1c1.4,0.6,4.5,0.2,4,2.2c-0.5,2-3.2,0.7-5,0.5c-6-0.7-12-1.2-18,0.2c-4.3,1-5.2,3-3.1,7
		c2.2,4.2,5.9,5.8,10.3,5.7c6.6-0.2,13,1.5,19.6,2c1.4,0.1,3.4,0.4,3.3,2.3c-0.2,2.1-2.3,1.3-3.6,1.2c-10.7-0.3-20.5,2.4-28.8,9.4
		c-3.1,2.6-5,2.5-7.4-0.9c-3-4.1-6.3-8-11.2-10.1c-3.3-1.4-4.5-0.7-4.5,2.8c-0.1,6-0.1,12.1,0.1,18.1c0.2,5.7,2.2,11,5.1,15.9
		c0.5,0.8,1,1.8,2.1,1.5c1.4-0.5,0.4-1.5,0.3-2.3c-0.1-1.3-0.2-2.7-0.2-4c0-1,0.2-1.9,1.5-2c1.1-0.1,1.7,0.7,2,1.7
		c0.2,0.8,0.2,1.6,0.4,2.4c2,6.1,0.7,12.9,3.8,18.8c0.5,0.9,0.6,2.3,1.9,2.3c1.6,0,2-1.5,2.1-2.5c0.3-2,0.2-4,0.3-6
		c0.1-1.3-0.2-2.7,0.7-3.9c0.5-0.7,1.1-1.3,2-1.1c0.7,0.2,0.9,1,1,1.6c0.1,4.3,2.2,8.2,2,12.6c-0.1,3.8,1.4,7,4.7,9.3
		c0.8,0.6,1.7,1,2.6,0.6c1.1-0.5,0.8-1.6,0.8-2.5c-0.1-2.4,0-4.9-0.6-7.2c-1-3.8,0.5-6.7,2.3-9.8c0.5,0.5,1,0.7,1.1,1
		c2.4,7.8,4.1,15.8,4.4,24c0.1,3.4,1,6.3,3.4,8.8c1,1.1,2.3,1.4,3.7,1c1.7-0.5,1.2-1.9,1.2-3c-0.1-1.6-0.5-3.2-0.8-4.7
		c-0.7-3.6-1.6-7.1-0.6-10.7c0.3-1.2,0.9-2.3,2.4-2.4c1.3,0,1,1.3,1.4,2.1c1.2,1.9,1.1,4,1.5,6.1c0.9,5.5,1.3,11.2,4.5,16
		c0.8,1.2,1.9,2,3.4,1.5c1.5-0.6,1-2,0.9-3.1c-0.4-3.5-0.9-6.9-1.3-10.4c-0.1-1,0-2.1,1-2.4c1.2-0.4,1.6,0.6,1.9,1.5
		c0.8,2.4,2,4.6,2.6,7.1c0.7,2.9,1.4,6,4.4,8.1c0.6-1.9,0.4-4.3,2.7-4.5c2.3-0.2,3.5,1.7,4.7,3.3c0.4,0.5,0.7,1.2,1.1,1.7
		c2.3,3.3,5.6,4.8,9.4,4.1c6-1,11.6-3.5,17.9-3.3C208.7,350.6,207.2,350.3,206.2,349.6z"/>
	<path class="st11" d="M342.3,246c-2.1-0.6-4.1-1.3-6.2-1.8c-8.5-2-17.3-2.1-26-2.2c-22.9-0.4-45.9-0.3-68.8-0.4
		c-7.9,0-15.8-0.1-23.7,0.9c-3.7,0.5-5.7,2.4-7.2,5.9c-3,7.3-2.8,14.9-3.3,22.5c-0.4,6.2,1,11.9,3.7,17.5c1.7,3.5,4.2,5.4,8.3,4.7
		c2.4-0.4,4.8-0.1,7.2-0.1c4.3,0.2,8.5,0.6,12.8-0.2c5.5-1,6.7-2.3,6.6-8c-0.1-4.4,0.1-8.8,1.9-13c0.3-0.8,0.5-1.9,1.8-1.9
		c1.2,0,1.5,1,1.8,1.9c0.8,2,1.1,4.1,0.8,6.3c-0.6,4-1.2,7.9-1.7,11.9c-0.5,3.2,0.3,5.3,4.1,6c6.2,1.1,12.3,2.4,18.7,1.7
		c4.9-0.5,9.9,0.1,14.7,1.7c1.6,0.5,3.4,1.1,5.1,1c7-0.3,13.6,1.2,20.1,3.4c6.4,2.2,12.1,0.6,17.3-3.4c2.9-2.2,3.8-4.9,1.6-8
		c-2.1-2.9-2-5.8-1.2-9.1c1.8-7,3.3-14.1,4.9-21.1c0.2-1,0.6-2.4,1.9-2.3c1.3,0.1,1.1,1.5,1.4,2.5c0.6,2.6,0.7,5.2,0.1,7.9
		c-0.7,3.1-0.8,6.4,1,9.4c0.6,0.9,1.2,2,2.4,1.9c1.4-0.1,1.3-1.5,1.6-2.5c2.5-8.1,3.3-16.5,4-24.9
		C348.2,249.8,346.6,247.2,342.3,246z"/>
	<path class="st11" d="M281.6,170.3c-2,0.3-2.9,1.8-3,3.7c-0.2,2.8-0.9,5.4-2.5,7.8c-0.4-0.1-0.8-0.1-1.2-0.2c0-2.8,0-5.5,0-8.3
		c0-2.1-1-3.6-2.7-4.6c-1.7-0.9-3,0.5-4.3,1.4c-3.3,2.4-4.3,6-5.1,9.7c-1.8,9-0.1,17.9,1.1,26.8c0.7,4.7-0.6,8-4,11
		c-8.7,7.7-18.9,9.4-30,7.6c-6.3-1-11.9-3.9-17.7-6.3c-1.8-0.7-4.3-1.9-5.2,0.7c-2.1,5.9,0.2,15.4,8.2,16.4
		c3.6,0.4,7.2,0.7,10.8,0.3c8.4-1,16.6-3.2,25.1-2.7c10.6,0.6,21.2,1.2,31.8,0.9c9.5-0.3,19-0.8,28.5-0.8
		c9.6-0.1,11.3-1.1,14.4-10.4c1.2-3.7,2.6-7.3,3.9-10.9c0.4-1,0.6-2.5,1.9-2.2c1.6,0.3,1.1,1.9,1.1,3c0,3.3-0.1,6.7,0.1,10
		c0.3,3.6,3,5.2,6.2,3.5c1.2-0.6,2.2-1.5,3.1-2.5c1.6-1.7,3.3-2.4,5.2-0.7c3,2.6,4.5,0.9,5.4-2c0.5-1.4,0.8-2.8,1.2-4.3
		c3.4-15.2,3.5-30.6,3.3-46c0-0.7,0.1-1.4-0.2-2c-0.9-2-1.8-4.9-4.3-4.6c-2.3,0.2-2.6,3-2.8,5.2c-0.2,1.7,0.6,3.6-1.3,5.4
		c-0.9-2.5-1.9-4.7-2.5-7c-1.5-5.3-3.7-7.2-9.3-7.6c-5.8-0.4-11.5,0.1-17.3,0.9C306.6,163.3,294.5,168.3,281.6,170.3z"/>
	<path class="st11" d="M227.2,349.4c6.8,5,14.1,6.4,22,4.9c4.1-0.8,7.9-0.6,11.8,1.1c4.6,2,9.6,2.7,14.2,1.3
		c9.2-2.7,18.5-5.2,27.4-9.1c2-0.9,4.2-1.9,4.9-4c2.7-8.1,5.1-16.4,3.2-25.1c-0.9-4.2-4.5-6.9-8.5-6.5c-5.2,0.6-9.7-0.9-14.2-3.2
		c-6.5-3.3-13.5-5.6-20.9-4.8c-8.5,0.9-16.8-0.6-25.2-1.4c-11.3-1.2-22.5-3-34-0.8c-5.1,1-7.9,3.6-9.1,8.3c-1.4,6-2.6,12-3.9,18
		c-0.3,1.5,0,3,0.7,4.3c0.9,1.5,1.8,3.2,3.9,3c2-0.2,2.1-2.1,2.5-3.7c0.3-1,0.5-2.1,0.7-3.1c1.1-5.2,2.2-10.5,4.7-15.3
		c0.5-1.1,1.1-2.5,2.6-2c1.6,0.6,0.3,1.8,0.1,2.7c-1.4,7.7-4.2,15.2-3.4,23.3c0.3,3,0.9,5.8,3.2,7.9c1.4,1.2,2.9,2.1,4.8,1.3
		c1.9-0.8,1.1-2.6,1-3.9c-0.5-7.6,0.6-15,3.1-22.1c0.4-1.3,0.4-3.5,2.4-3.1c1.7,0.3,1,2.4,0.8,3.5c-0.8,3.7-1,7.4-0.7,12.1
		C221,338.6,221,344.9,227.2,349.4z"/>
	<path class="st11" d="M265.4,154.7c-0.5,2.5,0.8,3.4,3.2,3.3c3.8-0.1,7.5,0,12.2,0c5.2,0.4,11.4-0.2,17.5-0.8
		c7.7-0.7,15.3-2.7,22.8-4.4c0.6-0.1,1.4-0.1,1.5-1c0.1-0.6-0.3-1-0.9-1.1c-4.5-0.2-4.2-2.6-3.3-6c0.7-2.7,0.6-5.6-0.3-8.3
		c-1-3.2-1.3-6.6-1.1-9.9c0.1-1.1-0.7-2.7,1-3.1c1.6-0.3,1.6,1.4,2.2,2.4c2.1,4.3,1.9,9.2,3.7,13.5c0.9,2.1,1.7,5.5,4.3,5
		c2.5-0.4,2.4-3.8,2.6-6.1c1.1-13.2-3.2-24.7-10.8-35.3c-3.7-5.2-8.4-7.8-14.6-7.5c-13.1,0.7-26.2,1.4-39.3,2.3
		c-6.4,0.5-6.9,1.4-5.2,7.5C265.4,121.5,268.7,137.8,265.4,154.7z"/>
	<path class="st11" d="M391.6,148.5c-9.3-22-22.6-41.7-39.5-58.7s-36.7-30.3-58.7-39.5c-22.8-9.6-46.9-14.5-71.9-14.5
		c-24.9,0-49.1,4.9-71.9,14.5c-22,9.3-41.7,22.6-58.7,39.5s-30.3,36.7-39.5,58.7C41.9,171.3,37,195.4,37,220.3
		c0,24.9,4.9,49.1,14.5,71.9c9.3,22,22.6,41.7,39.5,58.7c16.9,16.9,36.7,30.3,58.7,39.5c22.8,9.6,46.9,14.5,71.9,14.5
		c24.9,0,49.1-4.9,71.9-14.5c22-9.3,41.7-22.6,58.7-39.5c16.9-16.9,30.3-36.7,39.5-58.7c9.6-22.8,14.5-46.9,14.5-71.9
		C406.1,195.4,401.2,171.3,391.6,148.5z M121,352.5c0.2-0.1,0.4-0.2,0.6-0.3c4.2-1.8,8.3-1.3,12.6-0.4c5.9,1.2,11.5,3.6,17.6,3.6
		c0.6,0,1.3,0.2,1.8-0.6c-0.2-1.9-2.1-2.2-3.3-3c-6.2-3.7-12.7-6.9-18.4-11.4c-16.2-12.6-28.6-28.5-38.6-46.3
		c-4-7.2-2.3-14.9-0.7-22.4c0.9-4.3,2.2-8.6,3.2-12.8c1.4-5.8,0-7.5-6-7.9c-3.4-0.2-6.7-0.2-10,0.7c-1.2,0.4-2.4,0.3-3.6,0
		c-0.8-0.2-1.7-0.3-1.6-1.4c0-1.1,0.8-1.3,1.7-1.3c3.5,0,6.8-1.1,10.4-1.1c4.7,0.1,9.6-3.1,9.6-5.8c0-2.4-4.3-4.8-9.2-5
		c-5.1-0.2-10.2,0.3-15.2,1.2c-2,0.4-5.3,1.2-5.7-1c-0.4-2.2,3.2-2.3,5-2.6c5.6-0.8,11.1-1.8,16.5-3.5c3.9-1.1,7.5-2.8,10.8-5.1
		c4.2-2.8,5.4-6.5,4-11.1c-1.8-5.6-3.6-11.2-5.7-16.7c-3.5-9-5.4-18.2-4.7-27.9c0.2-1.9,0.4-3.8,1.3-5.4c5.7-9.6,9.8-19.9,15.2-29.6
		c1.5-2.7,3.3-5.2,5.1-7.7c3.1-4.4,3.1-4.6-1.9-6.1c-5.7-1.7-11.5-3.3-17.3-5c-0.9-0.3-1.6-0.6-2.1-1c30.4-37.5,76.9-61.5,129-61.5
		c91.7,0,166.1,74.3,166.1,166.1s-74.3,166.1-166.1,166.1C183.8,386.4,148.9,373.8,121,352.5z"/>
</g>
</svg>
