<?xml version="1.0" encoding="utf-8"?>
<!-- Generator: Adobe Illustrator 20.0.0, SVG Export Plug-In . SVG Version: 6.00 Build 0)  -->
<svg version="1.1" id="Layer_1" xmlns="http://www.w3.org/2000/svg" xmlns:xlink="http://www.w3.org/1999/xlink" x="0px" y="0px"
	 viewBox="0 0 450 450" style="enable-background:new 0 0 450 450;" xml:space="preserve">
<style type="text/css">
	.st0{fill:#FAAF1B;}
	.st1{fill:#5C355B;}
	.st2{fill:#196EB2;}
	.st3{fill:#9C1F26;}
	.st4{fill-rule:evenodd;clip-rule:evenodd;fill:#949698;}
	.st5{fill:#EC2027;}
	.st6{fill:#FFFFFF;}
	.st7{fill:none;stroke:#FFFFFF;stroke-width:1.6667;}
	.st8{fill:#CC2C31;}
	.st9{fill-rule:evenodd;clip-rule:evenodd;fill:#EC2028;}
	.st10{fill-rule:evenodd;clip-rule:evenodd;}
	.st11{fill:#18A14A;}
	.st12{fill:#F0E92A;}
	.st13{fill:#EB2329;}
	.st14{fill:#C5232B;}
	.st15{fill:#E72B2F;}
	.st16{fill:#FCB415;}
	.st17{fill:#E6BC5D;}
</style>
<polygon class="st0" points="344,244.4 335.4,267.5 316.3,326.8 282.4,385.5 264.7,408.2 199.3,411.5 174.2,401.5 141.9,358.3 
	124.3,302.1 111.9,271.2 107.5,267.5 98.2,242.5 100,222.8 103.3,147.3 104.5,110.4 140,75.6 216.5,57.6 291.6,68.5 330.6,98.2 
	344,138.9 344,198.9 "/>
<g>
	<path class="st15" d="M351.7,171.6c0,0-0.4-5.5-2-8.6c-1.5-3.1,0.9-28.4-2.9-47.8s-23.5-94.9-125.4-94.9S99.8,95.9,96.1,115.2
		c-3.7,19.4-1.3,44.7-2.9,47.8s-2,8.6-2,8.6c-0.2,28.9,5.1,63,5.1,63s2.9,16.7,5.1,8.6c1.3-5.1,3.9-13.7,6.1-24.1l25.9,33.7l0,0l0,0
		l0,0l0,0l22,13.4c0.7,0.4,1.6,0.6,2.5,0.5l34.4-4.3c0.8-0.1,1.6-0.5,2.2-1.2l3.8-4.6c8.3,0.4,15.3,0.5,19.3,0.5c2.1,0,3.4,0,3.8,0
		c0.4,0,1.7,0,3.8,0c4.1,0,11-0.1,19.3-0.5l3.8,4.6c0.5,0.7,1.3,1.1,2.2,1.2l34.4,4.3c0.9,0.1,1.7-0.1,2.5-0.5l22-13.4l0,0l0,0l0,0
		l0,0l25.9-33.7c2.2,10.4,4.8,18.9,6.1,24.1c2.1,8.1,5.1-8.6,5.1-8.6S352,200.5,351.7,171.6z M108.7,213.6l-0.1,0.1
		c1.4-7.2,2.6-15,3.1-23.1c0.4-6.1,0.7-14.4,0.8-23.2c4.6,17.3,13.3,46,27.5,76l-3.9,5.7L108.7,213.6z M221.4,252
		c-0.3,0-15.3,0.3-33.1-1.3c-5.9-0.6-12.9-1.5-19.5-2.6c-4.5-0.7-8.8-1.6-12.5-2.4c-4.5-1.1-8.6-2.5-12.3-4.1
		c-22.4-47.7-31.2-91.7-31.3-92.1l-0.1,0c0-17.8-0.2-33.3-0.2-33.3c18.5-20,51.2-35,51.2-35s3.4,30.1,6.3,46.6
		c2.9,16.4,11,44.1,11,44.1s12.2,5.3,40.6,5.3v0c0,0,0,0,0,0s0,0,0,0s0,0,0,0s0,0,0,0v0c28.4,0,40.6-5.3,40.6-5.3s8-27.6,11-44.1
		c2.9-16.4,6.3-46.6,6.3-46.6s32.7,14.9,51.2,35c0,0-0.3,15.6-0.2,33.3l-0.2,0c-0.1,0.4-8.8,44.5-31.3,92.1c-3.7,1.6-7.8,3-12.3,4.1
		c-3.7,0.8-8,1.7-12.5,2.4c-6.5,1-13.4,1.9-19.3,2.5C236.9,252.3,221.7,252,221.4,252z M334.2,213.6l-27.3,35.5l-3.9-5.7
		c14.1-30.1,22.9-58.7,27.5-76c0.1,8.8,0.4,17.1,0.8,23.2c0.6,8.1,1.7,15.9,3.1,23.1L334.2,213.6z"/>
	<path class="st15" d="M334.2,267c-1.9,2.6-5.8,7.9-13.4,17.9c-3.5,2.2-38.1,24.8-54.8,64.3c-2.2,5.2-4,10-5.5,14.4h-39v5.7h37.2
		c-3.3,11-4.7,19.6-5.1,26.1h-15.1l-3.2-5.8c-0.2-0.3-0.5-0.5-0.9-0.5h-12.8h-12.8c-0.4,0-0.7,0.2-0.9,0.5l-3.2,5.8h-15.1
		c-0.5-6.5-1.8-15.1-5.1-26.1h37.2v-5.7h-39c-1.5-4.5-3.3-9.3-5.5-14.4c-16.7-39.5-51.3-62.1-54.8-64.3c-7.5-10-11.5-15.4-13.4-17.9
		c-0.4-0.6-1.3-0.2-1.2,0.5l4.5,46c1,8,3.8,15.7,8.3,22.4l47,70.5c5.8,9,15.8,14.5,26.5,14.5H221h0.5h0.5h27.1
		c10.7,0,20.7-5.5,26.5-14.5l47-70.5c4.5-6.7,7.3-14.4,8.3-22.4l4.5-46C335.5,266.8,334.6,266.4,334.2,267z M131.6,297.4
		c12.2,10.1,30.7,28.4,41.3,53.5c2.1,5,3.9,9.6,5.3,14l-4.8,2.1c-4-4.8-10.3-12.2-13.8-16.2c-0.2-1.2-0.5-2.8-0.6-4.5
		c0-0.3,0-0.6,0-0.8c0,0,0,0,0,0l0,0c0-0.4-0.1-0.8-0.1-1.2C158.4,340.8,151.6,324,131.6,297.4C131.6,297.5,131.6,297.5,131.6,297.4
		z M154.3,361.4c0,0-2.5-3.5,0.9-5.8c0,0,2-1.1,3.4,0.6c3.9,4.6,9.4,11,12.5,14.8l1,1.2l7.8-2.3c3.5,11.3,4.8,20.1,5.2,26.5
		l-3.8,2.4L154.3,361.4z M288.7,361.4l-27,37.5l-3.8-2.4c0.4-6.3,1.7-15.2,5.2-26.5l7.8,2.3l1-1.2c3.1-3.8,8.6-10.3,12.5-14.8
		c1.5-1.7,3.4-0.6,3.4-0.6C291.2,357.9,288.7,361.4,288.7,361.4z M284,344.2c-0.1,0.4-0.1,0.8-0.1,1.2l0,0c0,0,0,0,0,0
		c0,0.3,0,0.5,0,0.8c-0.1,1.7-0.4,3.3-0.6,4.5c-3.5,4.1-9.8,11.4-13.8,16.2l-4.8-2.1c1.5-4.3,3.2-9,5.3-14
		c10.6-25,29.1-43.4,41.3-53.5c0,0,0,0.1-0.1,0.1C291.4,324,284.6,340.8,284,344.2z"/>
</g>
</svg>
