<?xml version="1.0" encoding="utf-8"?>
<!-- Generator: Adobe Illustrator 20.0.0, SVG Export Plug-In . SVG Version: 6.00 Build 0)  -->
<svg version="1.1" id="Layer_1" xmlns="http://www.w3.org/2000/svg" xmlns:xlink="http://www.w3.org/1999/xlink" x="0px" y="0px"
	 viewBox="0 0 450 450" style="enable-background:new 0 0 450 450;" xml:space="preserve">
<style type="text/css">
	.st0{fill:#FAAF1B;}
	.st1{fill:#5C355B;}
	.st2{fill:#196EB2;}
	.st3{fill:#9C1F26;}
	.st4{fill-rule:evenodd;clip-rule:evenodd;fill:#949698;}
	.st5{fill:#EC2027;}
	.st6{fill:#FFFFFF;}
	.st7{fill:none;stroke:#FFFFFF;stroke-width:1.6667;}
	.st8{fill:#CC2C31;}
	.st9{fill-rule:evenodd;clip-rule:evenodd;fill:#EC2028;}
	.st10{fill-rule:evenodd;clip-rule:evenodd;}
	.st11{fill:#18A14A;}
	.st12{fill:#F0E92A;}
	.st13{fill:#EB2329;}
	.st14{fill:#C5232B;}
	.st15{fill:#E72B2F;}
	.st16{fill:#FCB415;}
	.st17{fill:#E6BC5D;}
</style>
<path class="st9" d="M163.3,30.4c-0.3,6.6-3.1,12.6-4.9,19.1c-1.8,6.3-3.4,13.1-4.9,19.7c-4,17.3-7.7,34.3-7.4,56.7
	c13.7,2.6,30.9,0.7,43.2-1.9c6.7,4.4,11.1,11.2,17.3,16c-1.2-8.4,4.4-10,9.3-12.3c-2.1,3.6-5.5,6.1-4.3,13c2.8,1.9,3.3-3.1,5.6-3.7
	c3.2,3.6,7.2,3.4,10.5,0c2.4,0.5,1.7,4,4.3,4.3c3.7-4.8-1.6-10-3.1-13.6c4.6,2.4,9.8,4.2,9.3,11.7c5-3,11-10.3,16-15.4
	c12.8,2.7,29.3,4,44.4,2.5c-0.5-37.5-9.6-66.5-18.5-95.6c2.5-0.3,2.4,2.9,3.1,4.3c9.2,19.8,17.3,42.5,24.1,66.6
	c1,3.5,2.6,8.3,3.7,13c0.9,4.1,3,11.3,2.5,13.6c-1.1,5.1-9.4,6.8-11.1,11.1c-5.1-6.1-19.9-4.3-33.9-4.9c-4-0.2-9.3-1.3-11.7-0.6
	c-5.4,1.5-7.7,9.4-10.5,13.6c7.6,0.5,13.6-6.8,20.4-7.4c4.3-0.4,10.5,2.9,16,4.3c15.9,4.2,33.6,7.8,48.1,12.3
	c0.9-49.6-11.9-90.9-29-124.6c17,23.5,28.5,51,37,83.3c1.5,5.6,2.7,10.9,3.7,16.7c1.4,8.1,1.4,18.1,5.6,24.1
	c-5.1,5.6-11.3,10.1-16.7,15.4c-15.2-9-44.4-22.1-69.1-19.7c-5.9,0.6-11.1,3.5-15.4,7.4c7.5,3,12.7,3.3,22.8,3.1
	c2.5-0.1,6.1-1.1,8-0.6c2.1,0.5,5.6,5,8.6,8c17.8,17.8,33.7,30.9,54.9,45c6.6,4.4,10.3,8.9,17.9,3.1c1.3,58.5-14.3,101.7-33.3,141.2
	c-2.2,4.6-3.6,10-7.4,13.6c14.3-33.7,25.3-73.9,25.3-120.9c0-4.9,0.9-11.1,0-15.4c-1.3-6.2-11-12.7-16.7-17.9
	c-15.9-14.7-28.6-25-46.3-38.9c-3.5-2.7-6.4-6.4-9.3-7.4c-3-1.1-7.7-1.3-11.1-1.8c-4.2-0.7-8.2-0.8-11.7-1.2
	c6.8,7.3,17.6,16.4,27.1,23.4c1.7,1.6,3.5-0.6,5.6-0.6c2.3,68.8-2.8,136.1-22.2,186.3c-4.6,12-9.7,23.7-17.9,32.7
	c26.3-47.5,28.3-129,22.8-200.5c5.6-4.8,3.2-8.9-1.9-14.8c-5.5-6.5-15.2-15.9-21.6-19.1c-0.4,3.2,0.6,6.4,1.8,9.3
	c1.2,2.9,3.9,5.4,4.3,8c0.9,5.5-1.3,17.6-2.5,24.1c-3.8,21.3-11.9,44.6-19.1,60.4c-2.6-0.3-0.8-5-2.5-6.2c-2.7,0.1-1.1,4.7-2.5,6.2
	c-8.5-14.5-15.7-38.5-19.7-60.4c-1.4-7.9-3.6-17.3-2.5-24.1c0.9-5.4,6.7-10.2,6.2-16.7c-5.6,1.3-10.9,6.9-15.4,11.7
	c-4.5,4.8-9.2,9.9-12.3,15.4c0.4,2.7,3,3.2,3.7,5.6c-4,72.3-3.9,153.7,23.4,200.5c-2.9-0.4-4.2-4-5.6-6.2
	c-25.5-40.7-32.3-103.5-35.2-168.4c-0.6-14.3-1.3-28.4,0.6-42.6c0.5-3,3.7,1.4,5.6-0.6c9.7-7.3,18.5-15.6,27.8-23.4
	c-8.1,1.2-16.8,0.8-24.1,3.7c-6.3,2.5-13.2,9.3-19.1,14.2c-18.1,14.7-37.2,30.8-52.4,47.5c-3.1,55,9.5,99.4,24.7,138.2
	c-21.9-42.7-42.2-90.2-40.1-154.8c8.3,7.9,21-5,27.8-9.9c18.7-13.7,38.6-31.3,53-46.3c10.4,1.5,22.7,0.3,31.5-1.9
	c-10.9-13.9-38.8-6.9-55.5-1.9c-11.2,3.4-21.6,8.3-28.4,13.6c-6.4-4.3-11.3-10.1-17.3-14.8c4.4-11,5.3-29.4,8.6-41.9
	c8.2-30.6,20.9-57.7,36.4-82.7c-0.4,4.7-3.7,8.8-5.5,13c-13.5,30.1-22.4,67.3-22.8,111c14.3-3.2,31.3-7.2,48.1-11.7
	c5.5-1.5,11.2-4.5,15.4-4.3c6.9,0.2,13.3,7.3,21,7.4c-1.8-5.8-5.3-9.9-9.3-13.6c-12.7,1.5-26.9-0.8-38.2,1.2
	c-1.2,0.2-2.7,0.9-4.3,1.9c0.1-0.1-3.7,2.5-3.1,2.5c-2.6,0-8.8-8.9-11.7-9.9C137.1,91.9,150.5,61.4,163.3,30.4z"/>
</svg>
