<?xml version="1.0" encoding="utf-8"?>
<!-- Generator: Adobe Illustrator 20.0.0, SVG Export Plug-In . SVG Version: 6.00 Build 0)  -->
<svg version="1.1" id="Layer_1" xmlns="http://www.w3.org/2000/svg" xmlns:xlink="http://www.w3.org/1999/xlink" x="0px" y="0px"
	 viewBox="0 0 450 450" style="enable-background:new 0 0 450 450;" xml:space="preserve">
<style type="text/css">
	.st0{fill:#FAAF1B;}
	.st1{fill:#5C355B;}
	.st2{fill:#196EB2;}
	.st3{fill:#9C1F26;}
	.st4{fill-rule:evenodd;clip-rule:evenodd;fill:#949698;}
	.st5{fill:#EC2027;}
	.st6{fill:#FFFFFF;}
	.st7{fill:none;stroke:#FFFFFF;stroke-width:1.6667;}
	.st8{fill:#CC2C31;}
	.st9{fill-rule:evenodd;clip-rule:evenodd;fill:#EC2028;}
	.st10{fill-rule:evenodd;clip-rule:evenodd;}
	.st11{fill:#18A14A;}
	.st12{fill:#F0E92A;}
	.st13{fill:#EB2329;}
	.st14{fill:#C5232B;}
	.st15{fill:#E72B2F;}
	.st16{fill:#FCB415;}
	.st17{fill:#E6BC5D;}
</style>
<g>
	<circle class="st3" cx="223" cy="224.4" r="181.8"/>
</g>
<g>
	<path class="st16" d="M260.9,298.3c5.9,2.9,12,5.4,18,8.1c1.2,0.5,1.9,0.3,2.5-0.9c0.8-1.6,1.8-3,2.5-4.6
		c10.1-20.5,20.2-40.9,30.2-61.5c9.5-19.8,18.9-39.6,28.2-59.5c4-8.5,8-17.1,11.9-25.7c1.1-2.4,1-2.6-1.3-3.9
		c-6.9-3.8-13.8-7.6-20.9-11.2c-26.9-13.4-53.8-26.9-80.9-40c-19.7-9.6-39.7-18.7-59.6-28c-1.3-0.6-2.8-1.1-4.4-1.8
		c0,0-19.3,38-28.4,56.2c-15.8,31.6-31.6,63.3-47.5,94.9c-0.6,1.3-0.5,1.9,0.7,2.5c1.9,1.1,3.7,2.4,5.6,3.3
		c23.9,12.2,47.7,24.4,71.7,36.4C213.1,274.9,237,286.6,260.9,298.3z"/>
	<path class="st16" d="M313.9,298.3c3.4-1.8,5.9-4.3,7.2-7.9c0.5-1.3,1.1-2.5,1.7-3.7c11.3-21.6,22.6-43.2,33.9-64.8
		c3.9-7.6,7.8-15.2,11.6-22.8c2.1-4.1,2.9-8.5,1.7-13c-2.1-7.9-7.7-26.7-8.6-28.5c-24.3,50.8-48.4,101.1-72.6,151.8
		C298.1,306.7,306,302.5,313.9,298.3z"/>
	<path class="st16" d="M174,68.5c-9.5,1-16.1,5.6-19.8,14.7c-2.8,6.8-6.2,13.4-9.5,20c-14.5,28.6-29,57.2-43.5,85.8
		c-1.1,2.2-1.6,4.6-1.4,7c0.6,6,3.4,11.2,5.4,16.8c4.1-3.9,71.2-137.7,72.7-144.8C176.5,68.2,175.2,68.4,174,68.5z"/>
	<path class="st16" d="M151.7,295.8c-0.7,1-7.5,13.2-9.9,18.8c-0.7,1.6-0.6,3.9-0.1,5.6c0.6,2.3,1.8,4.5,3,6.5
		c1.8,3.1,22.4,36.5,25,40.4c1-1.2,7.9-12.2,10.9-16.9c2-3.2,1.7-6.2-0.2-9.3C179.9,340,153.7,298.9,151.7,295.8z"/>
	<path class="st16" d="M203.7,307.2c1.8-0.9,13-17.3,15.1-22.1c-14.2-7.6-28.8-14.5-43.4-21.7C183.9,278.7,193.7,293,203.7,307.2z"
		/>
	<path class="st16" d="M167.6,266.3c-0.7,1-7.5,13.2-9.9,18.8c-0.7,1.6-0.6,3.9-0.1,5.6c0.6,2.3,1.8,4.5,3,6.5
		c1.8,3.1,22.4,36.5,25,40.4c1-1.2,7.9-12.2,10.9-16.9c2-3.2,1.7-6.2-0.2-9.3C195.8,310.6,169.6,269.4,167.6,266.3z"/>
	<path class="st16" d="M221.6,28C115.3,28,29.2,114.2,29.2,220.5c0,106.3,86.2,192.4,192.4,192.4c106.3,0,192.4-86.2,192.4-192.4
		C414,114.2,327.9,28,221.6,28z M166.3,381.7c1.4-2.8,1-5.6-0.7-8.3c-0.5-0.9-26.7-42-28.7-45.2c-0.7,1-7.5,13.2-9.9,18.8
		c-0.7,1.6-0.6,3.9-0.1,5.6c0.6,2.3,1.8,4.5,3,6.5c0.5,0.8,2.3,3.8,4.8,7.9c-12.2-7.2-23.4-15.9-33.5-26.1
		c-15.7-15.7-27.9-33.9-36.5-54.2c-8.9-21-13.4-43.3-13.4-66.3s4.5-45.3,13.4-66.3c8.6-20.3,20.9-38.5,36.5-54.2
		C116.7,84.3,135,72,155.3,63.4c21-8.9,43.3-13.4,66.3-13.4c23,0,45.3,4.5,66.3,13.4c20.3,8.6,38.5,20.9,54.2,36.5
		c15.7,15.7,27.9,33.9,36.5,54.2c8.9,21,13.4,43.3,13.4,66.3s-4.5,45.3-13.4,66.3c-8.6,20.3-20.9,38.5-36.5,54.2
		c-15.7,15.7-33.9,27.9-54.2,36.5c-21,8.9-43.3,13.4-66.3,13.4C202.6,390.9,184,387.8,166.3,381.7z"/>
</g>
</svg>
